<svg width="59" height="16" viewBox="0 0 59 16" xmlns="http://www.w3.org/2000/svg" xmlns:xlink="http://www.w3.org/1999/xlink"><title>5g_logo_black</title><defs><path id="a" d="M0 0h9.406v7.696H0z"/><path id="c" d="M0 15.391h59V0H0z"/><path id="e" d="M0 15.391h59V0H0z"/><path id="g" d="M0 15.391h59V0H0z"/><path id="i" d="M0 15.391h59V0H0z"/></defs><g fill="none" fill-rule="evenodd"><path d="M24.225 10.534c.261 1.324 1.371 1.933 2.768 1.933 1.567 0 2.524-1.072 2.524-2.605 0-1.576-.98-2.48-2.524-2.48-1.023 0-1.832.378-2.246.946H21.2L22.767 0h9.623v2.903h-6.968l-.565 2.816h.043c.587-.568 1.697-.967 3.116-.967 3.003 0 5.332 1.955 5.332 5.13 0 3.342-2.525 5.51-6.268 5.51-3.551 0-6.206-1.64-6.558-4.858h3.703zM36.338 1.962C37.549.722 39.18 0 41.275 0c3.729 0 5.904 2.024 6.387 5.125H44.2c-.262-1.222-1.212-2.11-2.803-2.11-2.377 0-3.565 2.027-3.565 4.712 0 2.725 1.37 4.711 3.625 4.711 1.877 0 2.964-1.26 3.125-2.584v-.042h-2.702V7.128h6.005v7.933h-2.497l-.202-1.776h-.04c-.946 1.507-2.336 2.106-4.091 2.106-2.075 0-3.706-.743-4.918-2.065-1.269-1.404-1.933-3.349-1.933-5.6 0-2.333.765-4.36 2.135-5.764zM51.011 0h1.772v4.959c0 .747.349 1.234 1.232 1.234.83 0 1.21-.516 1.21-1.268V0h1.772v4.892c0 1.747-.991 2.804-2.982 2.804-2.013 0-3.004-1.028-3.004-2.804V0z" fill="#000" fill-rule="nonzero"/><g transform="translate(49.594 7.696)"><mask id="b" fill="#fff"><use xlink:href="#a"/></mask><path d="M1.793 0l.721 3.23c.077.376.15.837.22 1.228.028.225.07.45.108.675h.021c.032-.203.07-.41.108-.623l.24-1.204L3.886 0h1.64l.669 3.283.23 1.216c.031.217.07.431.112.634h.017l.122-.675c.07-.39.16-.863.24-1.25L7.625 0h1.782l-1.96 7.696h-1.73l-.753-3.692c-.07-.3-.119-.657-.168-.946l-.08-.484h-.021l-.08.484c-.049.289-.09.645-.16.946l-.75 3.692h-1.74L0 0h1.793z" fill="#000" fill-rule="nonzero" mask="url(#b)"/></g><mask id="d" fill="#fff"><use xlink:href="#c"/></mask><path fill="#000" fill-rule="nonzero" mask="url(#d)" d="M15.391 14.536h3.42V0h-3.42z"/><mask id="f" fill="#fff"><use xlink:href="#e"/></mask><path fill="#000" fill-rule="nonzero" mask="url(#f)" d="M10.26 14.536h3.421V3.42h-3.42z"/><g><mask id="h" fill="#fff"><use xlink:href="#g"/></mask><path fill="#000" fill-rule="nonzero" mask="url(#h)" d="M5.13 14.536h3.42V6.841H5.13z"/></g><g><mask id="j" fill="#fff"><use xlink:href="#i"/></mask><path fill="#000" fill-rule="nonzero" mask="url(#j)" d="M0 14.536h3.42v-5.13H0z"/></g></g></svg>