<svg width="84" height="19" viewBox="0 0 84 19" xmlns="http://www.w3.org/2000/svg" xmlns:xlink="http://www.w3.org/1999/xlink"><title>logo_black</title><defs><path id="a" d="M0 0h84v18.524H0z"/><path id="c" d="M0 0h84v18.524H0z"/></defs><g fill="none" fill-rule="evenodd"><g transform="translate(0 .4)"><mask id="b" fill="#fff"><use xlink:href="#a"/></mask><path d="M33.342 5.05h3.705V1.77h-3.705v3.28zM4.2 18.146h3.87l4.2-12.081H8.565l-2.359 7.763H6.16L3.8 6.065H0l4.2 12.08zm13.591-9.793c1.299 0 2.196.967 2.337 2.384h-4.931c.282-1.44 1.061-2.384 2.594-2.384zm.19 7.481c-1.628 0-2.62-1.062-2.81-2.69h8.709c.023-2.596-.66-4.673-2.1-5.97-1.015-.944-2.36-1.463-4.06-1.463-3.633 0-6.157 2.76-6.157 6.371 0 3.634 2.406 6.419 6.394 6.419 1.51 0 2.714-.402 3.705-1.086 1.062-.732 1.817-1.794 2.029-2.855h-3.54c-.354.802-1.085 1.274-2.17 1.274zm6.772 2.312h3.68V12.6c0-2.525 1.512-3.634 3.824-3.327h.07V6.088c-.188-.07-.4-.094-.755-.094-1.438 0-2.406.66-3.233 2.077h-.07V6.065h-3.516v12.08zm8.589 0h3.705V6.065h-3.705v12.08zm4.72 0h10.335v-2.902h-5.852v-.071l5.593-6.277V6.065H38.062v2.902h5.663v.07l-5.663 6.325v2.784zm16.872-2.336c-1.747 0-2.666-1.463-2.666-3.68 0-2.243.92-3.682 2.666-3.682s2.714 1.439 2.714 3.681c0 2.218-.968 3.681-2.714 3.681zm.023-10.076c-3.846 0-6.417 2.761-6.417 6.395 0 3.61 2.57 6.395 6.417 6.395s6.419-2.784 6.419-6.395c0-3.634-2.572-6.395-6.419-6.395zm7.22 12.412h3.682V11.42c0-1.534.897-2.62 2.218-2.62 1.274 0 1.935.898 1.935 2.172v7.173h3.681v-7.881c0-2.667-1.604-4.554-4.2-4.554-1.652 0-2.808.707-3.68 2.005h-.072V6.065h-3.563v12.08z" fill="#000" fill-rule="nonzero" mask="url(#b)"/></g><g transform="translate(0 .4)"><mask id="d" fill="#fff"><use xlink:href="#c"/></mask><path fill="#E00" fill-rule="nonzero" mask="url(#d)" d="M73.632 6.064h1.885l1.885 4.043L82.115 0H84l-5.655 12.13H76.46z"/></g></g></svg>